<?xml version="1.0" encoding="UTF-8" standalone="no"?>
<svg width="160px" height="55px" viewBox="0 0 160 55" version="1.1" xmlns="http://www.w3.org/2000/svg" xmlns:xlink="http://www.w3.org/1999/xlink">
    <!-- Generator: Sketch 48.2 (47327) - http://www.bohemiancoding.com/sketch -->
    <title>Page 1</title>
    <desc>Created with Sketch.</desc>
    <defs>
        <polygon id="path-1" points="0 55 159.459765 55 159.459765 0.333125 0 0.333125"></polygon>
    </defs>
    <g id="Menu-new" stroke="none" stroke-width="1" fill="none" fill-rule="evenodd" transform="translate(-880.000000, -6.000000)">
        <g id="Page-1" transform="translate(880.000000, 6.000000)">
            <path d="M9.29137823,49 L7,55 L7.50912524,55 L8.05097546,53.5423283 L10.9509125,53.5423283 L11.4940214,55 L12,55 L9.71176841,49 L9.29137823,49 Z M9.50157332,49.6068575 L10.8030208,53.1375544 L8.19697923,53.1375544 L9.50157332,49.6068575 Z" id="Fill-1" fill="#235394"></path>
            <g id="Group-63">
                <path d="M12.5239216,54.61975 L10.2425098,48.441 L9.82337255,48.441 L7.53882353,54.61975 L8.04643137,54.61975 L8.58729412,53.119125 L11.4779608,53.119125 L12.019451,54.61975 L12.5239216,54.61975 Z M11.3311373,52.70225 L8.73286275,52.70225 L10.0329412,49.066 L11.3311373,52.70225 Z" id="Stroke-2" stroke="#235394" stroke-width="0.468"></path>
                <path d="M19.8676706,52.9623125 C19.8676706,52.4673125 19.6668863,52.0429375 19.3274353,51.7654375 C19.0664157,51.5473125 18.8060235,51.4435625 18.2212392,51.3585625 L17.5504941,51.2504375 C17.2016314,51.1979375 16.8439843,51.0529375 16.6275137,50.8704375 C16.4091608,50.6885625 16.3068863,50.4173125 16.3068863,50.0629375 C16.3068863,49.2816875 16.8439843,48.7873125 17.7412392,48.7873125 C18.4841412,48.7873125 18.8650039,49.0198125 19.2502588,49.3604375 L19.5552,49.0566875 C19.023749,48.5960625 18.5355922,48.3885625 17.7682196,48.3885625 C16.5823373,48.3885625 15.8432,49.0473125 15.8432,50.0823125 C15.8432,50.5579375 16.0000627,50.9398125 16.3282196,51.2185625 C16.591749,51.4435625 16.9669647,51.5998125 17.4369255,51.6698125 L18.1616314,51.7816875 C18.666102,51.8579375 18.8298667,51.9198125 19.0601412,52.1123125 C19.2835137,52.3110625 19.3970824,52.6148125 19.3970824,52.9829375 C19.3970824,53.7866875 18.7796706,54.2566875 17.8039843,54.2566875 C17.0541804,54.2566875 16.5980235,54.0823125 16.042102,53.5266875 L15.7108078,53.8541875 C16.278651,54.4198125 16.8540235,54.6729375 17.7788863,54.6729375 C19.0664157,54.6729375 19.8676706,54.0029375 19.8676706,52.9623125" id="Fill-4" fill="#235394"></path>
                <path d="M19.8676706,52.9623125 C19.8676706,52.4673125 19.6668863,52.0429375 19.3274353,51.7654375 C19.0664157,51.5473125 18.8060235,51.4435625 18.2212392,51.3585625 L17.5504941,51.2504375 C17.2016314,51.1979375 16.8439843,51.0529375 16.6275137,50.8704375 C16.4091608,50.6885625 16.3068863,50.4173125 16.3068863,50.0629375 C16.3068863,49.2816875 16.8439843,48.7873125 17.7412392,48.7873125 C18.4841412,48.7873125 18.8650039,49.0198125 19.2502588,49.3604375 L19.5552,49.0566875 C19.023749,48.5960625 18.5355922,48.3885625 17.7682196,48.3885625 C16.5823373,48.3885625 15.8432,49.0473125 15.8432,50.0823125 C15.8432,50.5579375 16.0000627,50.9398125 16.3282196,51.2185625 C16.591749,51.4435625 16.9669647,51.5998125 17.4369255,51.6698125 L18.1616314,51.7816875 C18.666102,51.8579375 18.8298667,51.9198125 19.0601412,52.1123125 C19.2835137,52.3110625 19.3970824,52.6148125 19.3970824,52.9829375 C19.3970824,53.7866875 18.7796706,54.2566875 17.8039843,54.2566875 C17.0541804,54.2566875 16.5980235,54.0823125 16.042102,53.5266875 L15.7108078,53.8541875 C16.278651,54.4198125 16.8540235,54.6729375 17.7788863,54.6729375 C19.0664157,54.6729375 19.8676706,54.0029375 19.8676706,52.9623125 Z" id="Stroke-6" stroke="#235394" stroke-width="0.468"></path>
                <path d="M27.9454745,52.865625 L27.4830431,52.865625 C27.3029647,53.718125 26.6755137,54.255625 25.8391216,54.255625 C25.3923765,54.255625 24.9732392,54.090625 24.6620235,53.77875 C24.2177882,53.335 24.182651,52.859375 24.182651,51.530625 C24.182651,50.2 24.2177882,49.72625 24.6620235,49.281875 C24.9732392,48.968125 25.3923765,48.803125 25.8391216,48.803125 C26.6755137,48.803125 27.2853961,49.3425 27.4692392,50.1925 L27.9454745,50.1925 C27.7465725,49.071875 26.9428078,48.388125 25.8391216,48.388125 C25.2549647,48.388125 24.6959059,48.61125 24.2855529,49.02 C23.7208471,49.583125 23.7126902,50.1325 23.7126902,51.530625 C23.7126902,52.926875 23.7208471,53.473125 24.2855529,54.03875 C24.6959059,54.44625 25.2549647,54.670625 25.8391216,54.670625 C26.9264941,54.670625 27.7465725,53.985625 27.9454745,52.865625" id="Fill-8" fill="#235394"></path>
                <path d="M27.9454745,52.865625 L27.4830431,52.865625 C27.3029647,53.718125 26.6755137,54.255625 25.8391216,54.255625 C25.3923765,54.255625 24.9732392,54.090625 24.6620235,53.77875 C24.2177882,53.335 24.182651,52.859375 24.182651,51.530625 C24.182651,50.2 24.2177882,49.72625 24.6620235,49.281875 C24.9732392,48.968125 25.3923765,48.803125 25.8391216,48.803125 C26.6755137,48.803125 27.2853961,49.3425 27.4692392,50.1925 L27.9454745,50.1925 C27.7465725,49.071875 26.9428078,48.388125 25.8391216,48.388125 C25.2549647,48.388125 24.6959059,48.61125 24.2855529,49.02 C23.7208471,49.583125 23.7126902,50.1325 23.7126902,51.530625 C23.7126902,52.926875 23.7208471,53.473125 24.2855529,54.03875 C24.6959059,54.44625 25.2549647,54.670625 25.8391216,54.670625 C26.9264941,54.670625 27.7465725,53.985625 27.9454745,52.865625 Z" id="Stroke-10" stroke="#235394" stroke-width="0.468"></path>
                <polygon id="Fill-12" fill="#235394" points="35.9442196 54.61975 35.9442196 54.20475 32.6494745 54.20475 32.6494745 51.712875 35.4573176 51.712875 35.4573176 51.296625 32.6494745 51.296625 32.6494745 48.8585 35.9442196 48.8585 35.9442196 48.441 32.1795137 48.441 32.1795137 54.61975"></polygon>
                <polygon id="Stroke-14" stroke="#235394" stroke-width="0.468" points="35.9442196 54.61975 35.9442196 54.20475 32.6494745 54.20475 32.6494745 51.712875 35.4573176 51.712875 35.4573176 51.296625 32.6494745 51.296625 32.6494745 48.8585 35.9442196 48.8585 35.9442196 48.441 32.1795137 48.441 32.1795137 54.61975"></polygon>
                <polygon id="Fill-16" fill="#235394" points="44.5275608 54.61975 44.5275608 48.441 44.0563451 48.441 44.0563451 53.79725 40.4754824 48.441 40.0023843 48.441 40.0023843 54.61975 40.4754824 54.61975 40.4754824 49.24725 44.0563451 54.61975"></polygon>
                <polygon id="Stroke-18" stroke="#235394" stroke-width="0.468" points="44.5275608 54.61975 44.5275608 48.441 44.0563451 48.441 44.0563451 53.79725 40.4754824 48.441 40.0023843 48.441 40.0023843 54.61975 40.4754824 54.61975 40.4754824 49.24725 44.0563451 54.61975"></polygon>
                <path d="M52.7009882,52.9623125 C52.7009882,52.4673125 52.5002039,52.0429375 52.1607529,51.7654375 C51.8997333,51.5473125 51.6362039,51.4435625 51.0526745,51.3585625 L50.3838118,51.2504375 C50.034949,51.1979375 49.677302,51.0529375 49.458949,50.8704375 C49.2393412,50.6885625 49.1370667,50.4173125 49.1370667,50.0629375 C49.1370667,49.2816875 49.677302,48.7873125 50.5707922,48.7873125 C51.3124392,48.7873125 51.6964392,49.0198125 52.0798118,49.3604375 L52.3860078,49.0566875 C51.8539294,48.5960625 51.3651451,48.3885625 50.6015373,48.3885625 C49.4144,48.3885625 48.6752627,49.0473125 48.6752627,50.0823125 C48.6752627,50.5579375 48.8308706,50.9398125 49.1615373,51.2185625 C49.421302,51.4435625 49.7984,51.5998125 50.2696157,51.6698125 L50.9911843,51.7816875 C51.4975373,51.8579375 51.6631843,51.9198125 51.8896941,52.1123125 C52.1180863,52.3110625 52.2304,52.6148125 52.2304,52.9829375 C52.2304,53.7866875 51.6092235,54.2566875 50.6354196,54.2566875 C49.8837333,54.2566875 49.4313412,54.0823125 48.8754196,53.5266875 L48.5441255,53.8541875 C49.1088314,54.4198125 49.6860863,54.6729375 50.6090667,54.6729375 C51.8997333,54.6729375 52.7009882,54.0029375 52.7009882,52.9623125" id="Fill-20" fill="#235394"></path>
                <path d="M52.7009882,52.9623125 C52.7009882,52.4673125 52.5002039,52.0429375 52.1607529,51.7654375 C51.8997333,51.5473125 51.6362039,51.4435625 51.0526745,51.3585625 L50.3838118,51.2504375 C50.034949,51.1979375 49.677302,51.0529375 49.458949,50.8704375 C49.2393412,50.6885625 49.1370667,50.4173125 49.1370667,50.0629375 C49.1370667,49.2816875 49.677302,48.7873125 50.5707922,48.7873125 C51.3124392,48.7873125 51.6964392,49.0198125 52.0798118,49.3604375 L52.3860078,49.0566875 C51.8539294,48.5960625 51.3651451,48.3885625 50.6015373,48.3885625 C49.4144,48.3885625 48.6752627,49.0473125 48.6752627,50.0823125 C48.6752627,50.5579375 48.8308706,50.9398125 49.1615373,51.2185625 C49.421302,51.4435625 49.7984,51.5998125 50.2696157,51.6698125 L50.9911843,51.7816875 C51.4975373,51.8579375 51.6631843,51.9198125 51.8896941,52.1123125 C52.1180863,52.3110625 52.2304,52.6148125 52.2304,52.9829375 C52.2304,53.7866875 51.6092235,54.2566875 50.6354196,54.2566875 C49.8837333,54.2566875 49.4313412,54.0823125 48.8754196,53.5266875 L48.5441255,53.8541875 C49.1088314,54.4198125 49.6860863,54.6729375 50.6090667,54.6729375 C51.8997333,54.6729375 52.7009882,54.0029375 52.7009882,52.9623125 Z" id="Stroke-22" stroke="#235394" stroke-width="0.468"></path>
                <path d="M60.7937882,51.53075 C60.7937882,50.132625 60.7862588,49.585125 60.2190431,49.0195 C59.8099451,48.613875 59.2515137,48.388875 58.6679843,48.388875 C58.0844549,48.388875 57.5272784,48.613875 57.1181804,49.0195 C56.5503373,49.585125 56.5428078,50.132625 56.5428078,51.53075 C56.5428078,52.926375 56.5503373,53.472625 57.1181804,54.038875 C57.5272784,54.446375 58.0844549,54.670125 58.6679843,54.670125 C59.2515137,54.670125 59.8099451,54.446375 60.2190431,54.038875 C60.7862588,53.472625 60.7937882,52.926375 60.7937882,51.53075 M60.3257098,51.53075 C60.3257098,52.8595 60.2880627,53.335125 59.8444549,53.778875 C59.5288471,54.091375 59.1115922,54.255125 58.6679843,54.255125 C58.2218667,54.255125 57.8046118,54.091375 57.4915137,53.778875 C57.0485333,53.335125 57.0121412,52.8595 57.0121412,51.53075 C57.0121412,50.200125 57.0485333,49.72575 57.4915137,49.281375 C57.8046118,48.967625 58.2218667,48.80575 58.6679843,48.80575 C59.1115922,48.80575 59.5288471,48.967625 59.8444549,49.281375 C60.2880627,49.72575 60.3257098,50.200125 60.3257098,51.53075" id="Fill-24" fill="#235394"></path>
                <path d="M60.7937882,51.53075 C60.7937882,50.132625 60.7862588,49.585125 60.2190431,49.0195 C59.8099451,48.613875 59.2515137,48.388875 58.6679843,48.388875 C58.0844549,48.388875 57.5272784,48.613875 57.1181804,49.0195 C56.5503373,49.585125 56.5428078,50.132625 56.5428078,51.53075 C56.5428078,52.926375 56.5503373,53.472625 57.1181804,54.038875 C57.5272784,54.446375 58.0844549,54.670125 58.6679843,54.670125 C59.2515137,54.670125 59.8099451,54.446375 60.2190431,54.038875 C60.7862588,53.472625 60.7937882,52.926375 60.7937882,51.53075 Z M60.3257098,51.53075 C60.3257098,52.8595 60.2880627,53.335125 59.8444549,53.778875 C59.5288471,54.091375 59.1115922,54.255125 58.6679843,54.255125 C58.2218667,54.255125 57.8046118,54.091375 57.4915137,53.778875 C57.0485333,53.335125 57.0121412,52.8595 57.0121412,51.53075 C57.0121412,50.200125 57.0485333,49.72575 57.4915137,49.281375 C57.8046118,48.967625 58.2218667,48.80575 58.6679843,48.80575 C59.1115922,48.80575 59.5288471,48.967625 59.8444549,49.281375 C60.2880627,49.72575 60.3257098,50.200125 60.3257098,51.53075 Z" id="Stroke-26" stroke="#235394" stroke-width="0.468"></path>
                <path d="M69.292298,54.61975 L67.7901804,51.766 C68.6617098,51.6185 69.2220235,51.01725 69.2220235,50.09975 C69.2220235,49.01975 68.454651,48.441 67.4438275,48.441 L65.0795922,48.441 L65.0795922,54.61975 L65.5526902,54.61975 L65.5526902,51.771625 L67.2587294,51.771625 L68.7413961,54.61975 L69.292298,54.61975 Z M68.7520627,50.10725 C68.7520627,50.9585 68.1766902,51.3585 67.3823373,51.3585 L65.5526902,51.3585 L65.5526902,48.8585 L67.3823373,48.8585 C68.1766902,48.8585 68.7520627,49.256 68.7520627,50.10725 Z" id="Fill-28" fill="#235394"></path>
                <path d="M69.292298,54.61975 L67.7901804,51.766 C68.6617098,51.6185 69.2220235,51.01725 69.2220235,50.09975 C69.2220235,49.01975 68.454651,48.441 67.4438275,48.441 L65.0795922,48.441 L65.0795922,54.61975 L65.5526902,54.61975 L65.5526902,51.771625 L67.2587294,51.771625 L68.7413961,54.61975 L69.292298,54.61975 Z M68.7520627,50.10725 C68.7520627,50.9585 68.1766902,51.3585 67.3823373,51.3585 L65.5526902,51.3585 L65.5526902,48.8585 L67.3823373,48.8585 C68.1766902,48.8585 68.7520627,49.256 68.7520627,50.10725 Z" id="Stroke-30" stroke="#235394" stroke-width="0.468"></path>
                <polygon id="Fill-32" fill="#235394" points="77.1850667 54.61975 77.1850667 54.20475 73.8915765 54.20475 73.8915765 51.712875 76.6994196 51.712875 76.6994196 51.296625 73.8915765 51.296625 73.8915765 48.8585 77.1850667 48.8585 77.1850667 48.441 73.4203608 48.441 73.4203608 54.61975"></polygon>
                <polygon id="Stroke-34" stroke="#235394" stroke-width="0.468" points="77.1850667 54.61975 77.1850667 54.20475 73.8915765 54.20475 73.8915765 51.712875 76.6994196 51.712875 76.6994196 51.296625 73.8915765 51.296625 73.8915765 48.8585 77.1850667 48.8585 77.1850667 48.441 73.4203608 48.441 73.4203608 54.61975"></polygon>
                <path d="M84.8878431,52.9623125 C84.8878431,52.4673125 84.6870588,52.0429375 84.3488627,51.7654375 C84.0865882,51.5473125 83.8268235,51.4435625 83.2414118,51.3585625 L82.5706667,51.2504375 C82.220549,51.1979375 81.8641569,51.0529375 81.6464314,50.8704375 C81.4287059,50.6885625 81.3220392,50.4173125 81.3220392,50.0629375 C81.3220392,49.2816875 81.8641569,48.7873125 82.7620392,48.7873125 C83.5011765,48.7873125 83.8870588,49.0198125 84.268549,49.3604375 L84.5747451,49.0566875 C84.0439216,48.5960625 83.5526275,48.3885625 82.7883922,48.3885625 C81.6031373,48.3885625 80.8602353,49.0473125 80.8602353,50.0823125 C80.8602353,50.5579375 81.017098,50.9398125 81.3502745,51.2185625 C81.6100392,51.4435625 81.9852549,51.5998125 82.457098,51.6698125 L83.180549,51.7816875 C83.6850196,51.8579375 83.8500392,51.9198125 84.0759216,52.1123125 C84.3036863,52.3110625 84.4141176,52.6148125 84.4141176,52.9829375 C84.4141176,53.7866875 83.7998431,54.2566875 82.8210196,54.2566875 C82.0724706,54.2566875 81.6200784,54.0823125 81.0622745,53.5266875 L80.7316078,53.8541875 C81.2975686,54.4198125 81.8716863,54.6729375 82.7990588,54.6729375 C84.0865882,54.6729375 84.8878431,54.0029375 84.8878431,52.9623125" id="Fill-36" fill="#235394"></path>
                <path d="M84.8878431,52.9623125 C84.8878431,52.4673125 84.6870588,52.0429375 84.3488627,51.7654375 C84.0865882,51.5473125 83.8268235,51.4435625 83.2414118,51.3585625 L82.5706667,51.2504375 C82.220549,51.1979375 81.8641569,51.0529375 81.6464314,50.8704375 C81.4287059,50.6885625 81.3220392,50.4173125 81.3220392,50.0629375 C81.3220392,49.2816875 81.8641569,48.7873125 82.7620392,48.7873125 C83.5011765,48.7873125 83.8870588,49.0198125 84.268549,49.3604375 L84.5747451,49.0566875 C84.0439216,48.5960625 83.5526275,48.3885625 82.7883922,48.3885625 C81.6031373,48.3885625 80.8602353,49.0473125 80.8602353,50.0823125 C80.8602353,50.5579375 81.017098,50.9398125 81.3502745,51.2185625 C81.6100392,51.4435625 81.9852549,51.5998125 82.457098,51.6698125 L83.180549,51.7816875 C83.6850196,51.8579375 83.8500392,51.9198125 84.0759216,52.1123125 C84.3036863,52.3110625 84.4141176,52.6148125 84.4141176,52.9829375 C84.4141176,53.7866875 83.7998431,54.2566875 82.8210196,54.2566875 C82.0724706,54.2566875 81.6200784,54.0823125 81.0622745,53.5266875 L80.7316078,53.8541875 C81.2975686,54.4198125 81.8716863,54.6729375 82.7990588,54.6729375 C84.0865882,54.6729375 84.8878431,54.0029375 84.8878431,52.9623125 Z" id="Stroke-38" stroke="#235394" stroke-width="0.468"></path>
                <polygon id="Fill-40" fill="#235394" points="102.409914 54.61975 102.409914 54.20475 99.1157961 54.20475 99.1157961 48.441 98.6458353 48.441 98.6458353 54.61975"></polygon>
                <polygon id="Stroke-42" stroke="#235394" stroke-width="0.468" points="102.409914 54.61975 102.409914 54.20475 99.1157961 54.20475 99.1157961 48.441 98.6458353 48.441 98.6458353 54.61975"></polygon>
                <mask id="mask-2" fill="white">
                    <use xlink:href="#path-1"></use>
                </mask>
                <g id="Clip-45"></g>
                <polygon id="Fill-44" fill="#235394" mask="url(#mask-2)" points="106.24251 54.619375 106.714353 54.619375 106.714353 48.440625 106.24251 48.440625"></polygon>
                <polygon id="Stroke-46" stroke="#235394" stroke-width="0.468" mask="url(#mask-2)" points="106.24251 54.619375 106.714353 54.619375 106.714353 48.440625 106.24251 48.440625"></polygon>
                <polygon id="Fill-47" fill="#235394" mask="url(#mask-2)" points="115.00982 48.8583125 115.00982 48.4408125 111.243859 48.4408125 111.243859 54.6195625 111.715702 54.6195625 111.715702 51.8170625 114.519153 51.8170625 114.519153 51.4008125 111.715702 51.4008125 111.715702 48.8583125"></polygon>
                <polygon id="Stroke-48" stroke="#235394" stroke-width="0.468" mask="url(#mask-2)" points="115.00982 48.8583125 115.00982 48.4408125 111.243859 48.4408125 111.243859 54.6195625 111.715702 54.6195625 111.715702 51.8170625 114.519153 51.8170625 114.519153 51.4008125 111.715702 51.4008125 111.715702 48.8583125"></polygon>
                <polygon id="Fill-49" fill="#235394" mask="url(#mask-2)" points="122.355388 48.8583125 122.355388 48.4408125 118.182839 48.4408125 118.182839 48.8583125 120.028173 48.8583125 120.028173 54.6195625 120.498761 54.6195625 120.498761 48.8583125"></polygon>
                <polygon id="Stroke-50" stroke="#235394" stroke-width="0.468" mask="url(#mask-2)" points="122.355388 48.8583125 122.355388 48.4408125 118.182839 48.4408125 118.182839 48.8583125 120.028173 48.8583125 120.028173 54.6195625 120.498761 54.6195625 120.498761 48.8583125"></polygon>
                <path d="M129.82902,52.9623125 C129.82902,52.4673125 129.628863,52.0429375 129.289412,51.7654375 C129.02902,51.5473125 128.766118,51.4435625 128.182588,51.3585625 L127.511843,51.2504375 C127.161725,51.1979375 126.805961,51.0529375 126.58949,50.8704375 C126.371137,50.6885625 126.265098,50.4173125 126.265098,50.0629375 C126.265098,49.2816875 126.805961,48.7873125 127.701961,48.7873125 C128.444235,48.7873125 128.82698,49.0198125 129.21098,49.3604375 L129.515922,49.0566875 C128.983843,48.5960625 128.496941,48.3885625 127.730196,48.3885625 C126.544941,48.3885625 125.801412,49.0473125 125.801412,50.0823125 C125.801412,50.5579375 125.958902,50.9398125 126.291451,51.2185625 C126.551843,51.4435625 126.926431,51.5998125 127.398275,51.6698125 L128.119843,51.7816875 C128.627451,51.8579375 128.791843,51.9198125 129.02149,52.1123125 C129.246745,52.3110625 129.357804,52.6148125 129.357804,52.9829375 C129.357804,53.7866875 128.740392,54.2566875 127.764078,54.2566875 C127.015529,54.2566875 126.561255,54.0823125 126.000941,53.5266875 L125.670902,53.8541875 C126.240627,54.4198125 126.814745,54.6729375 127.73898,54.6729375 C129.02902,54.6729375 129.82902,54.0029375 129.82902,52.9623125" id="Fill-51" fill="#235394" mask="url(#mask-2)"></path>
                <path d="M129.82902,52.9623125 C129.82902,52.4673125 129.628863,52.0429375 129.289412,51.7654375 C129.02902,51.5473125 128.766118,51.4435625 128.182588,51.3585625 L127.511843,51.2504375 C127.161725,51.1979375 126.805961,51.0529375 126.58949,50.8704375 C126.371137,50.6885625 126.265098,50.4173125 126.265098,50.0629375 C126.265098,49.2816875 126.805961,48.7873125 127.701961,48.7873125 C128.444235,48.7873125 128.82698,49.0198125 129.21098,49.3604375 L129.515922,49.0566875 C128.983843,48.5960625 128.496941,48.3885625 127.730196,48.3885625 C126.544941,48.3885625 125.801412,49.0473125 125.801412,50.0823125 C125.801412,50.5579375 125.958902,50.9398125 126.291451,51.2185625 C126.551843,51.4435625 126.926431,51.5998125 127.398275,51.6698125 L128.119843,51.7816875 C128.627451,51.8579375 128.791843,51.9198125 129.02149,52.1123125 C129.246745,52.3110625 129.357804,52.6148125 129.357804,52.9829375 C129.357804,53.7866875 128.740392,54.2566875 127.764078,54.2566875 C127.015529,54.2566875 126.561255,54.0823125 126.000941,53.5266875 L125.670902,53.8541875 C126.240627,54.4198125 126.814745,54.6729375 127.73898,54.6729375 C129.02902,54.6729375 129.82902,54.0029375 129.82902,52.9623125 Z" id="Stroke-52" stroke="#235394" stroke-width="0.468" mask="url(#mask-2)"></path>
                <polygon id="Fill-53" fill="#EC8424" mask="url(#mask-2)" points="91.3907451 55 92.6324706 55 92.6324706 48.40625 91.3907451 48.40625"></polygon>
                <path d="M136.811294,9.7411875 C136.811294,9.5430625 136.975059,9.3780625 137.175216,9.3780625 L140.992627,9.3780625 L138.218039,17.8268125 L137.175216,17.8268125 C136.975059,17.8268125 136.811294,17.6636875 136.811294,17.4636875 L136.811294,9.7411875" id="Fill-54" fill="#235394" mask="url(#mask-2)"></path>
                <path d="M149.755545,9.37625 L153.185192,9.37625 C153.387231,9.37625 153.550996,9.543125 153.550996,9.73875 L151.545663,15.61 C151.447153,15.82625 151.275859,15.975 151.076329,15.975 L147.604643,15.974375 L149.755545,9.37625" id="Fill-55" fill="#235394" mask="url(#mask-2)"></path>
                <path d="M141.836424,9.7216875 C141.901678,9.5210625 142.115012,9.3573125 142.320188,9.3573125 L148.381365,9.3573125 C148.580894,9.3573125 148.691325,9.5210625 148.62858,9.7216875 L144.338071,23.0704375 C144.277835,23.2704375 144.058855,23.4354375 143.859325,23.4354375 L137.795639,23.4354375 C137.594227,23.4354375 137.482541,23.2704375 137.547796,23.0704375 L141.836424,9.7216875" id="Fill-56" fill="#235394" mask="url(#mask-2)"></path>
                <path d="M144.639122,0.33325 C152.826102,0.33325 159.459514,6.94075 159.459514,15.097625 C159.459514,23.2495 152.826102,29.8595 144.639122,29.8595 C136.453396,29.8595 129.818102,23.2495 129.818102,15.097625 C129.818102,6.94075 136.453396,0.33325 144.639122,0.33325 M144.639122,2.287 C137.537004,2.287 131.779514,8.021375 131.779514,15.097625 C131.779514,22.17325 137.537004,27.905125 144.639122,27.905125 C151.741239,27.905125 157.498729,22.17325 157.498729,15.097625 C157.498729,8.021375 151.741239,2.287 144.639122,2.287" id="Fill-57" fill="#235394" mask="url(#mask-2)"></path>
                <path d="M14.5018353,39.901125 L7.53901176,39.901125 L7.53901176,16.774875 L0.000188235294,16.774875 L0.000188235294,14.02425 C0.000188235294,11.701125 1.03046275,10.611125 3.42356078,10.611125 L18.6191686,10.611125 C21.0097569,10.611125 22.0431686,11.701125 22.0431686,14.02425 L22.0431686,16.774875 L14.5018353,16.774875 L14.5018353,39.901125" id="Fill-58" fill="#EC8424" mask="url(#mask-2)"></path>
                <path d="M43.4491608,27.1319375 C43.6794353,27.3831875 43.9109647,27.6944375 44.1010824,28.0769375 L46.7671216,33.3513125 C47.2000627,34.1688125 49.8479059,39.8969375 49.8479059,39.8969375 L45.7010824,39.8969375 C43.4290824,39.8969375 42.1308863,39.4944375 41.0246902,37.3425625 L37.5078275,30.4463125 C37.1545725,29.7950625 36.9939451,29.6663125 35.7415529,29.6663125 L34.1252392,29.6663125 L34.1252392,39.8969375 L27.1630431,39.8969375 L27.1630431,10.6100625 L37.910651,10.6100625 C43.4165333,10.6100625 47.420298,14.0694375 47.420298,19.8113125 C47.420298,24.3500625 44.7843765,26.7738125 43.4491608,27.1319375 M34.1252392,16.7738125 L34.1252392,23.4663125 L37.2135529,23.4663125 C39.1975529,23.4663125 40.3401412,22.3581875 40.3401412,20.0806875 C40.3401412,17.8456875 39.2019451,16.7738125 37.290102,16.7738125 L34.1252392,16.7738125" id="Fill-59" fill="#EC8424" mask="url(#mask-2)"></path>
                <path d="M58.5483922,39.901125 C56.1659608,39.901125 54.9675294,38.707375 54.9675294,36.337375 L54.9675294,10.611125 L69.3543529,10.611125 C71.696,10.611125 72.9320784,11.843 72.9320784,14.177375 L72.9320784,16.774875 L61.9316078,16.774875 L61.9316078,22.07925 L70.8451765,22.078 L70.8451765,28.24175 L61.9140392,28.24175 L61.8412549,33.739875 L72.9521569,33.739875 L72.9521569,36.337375 C72.9521569,38.717375 71.7041569,39.901125 69.3731765,39.901125 L58.5483922,39.901125" id="Fill-60" fill="#EC8424" mask="url(#mask-2)"></path>
                <path d="M79.2402196,36.5151875 C78.7721412,36.0639375 78.0737882,35.1714375 78.0737882,35.1714375 L82.1114353,30.1695625 C82.1114353,30.1695625 83.0080627,31.1845625 83.2891608,31.4501875 C84.7705725,32.8314375 86.7181804,33.9308125 88.8075922,33.9308125 C90.6472784,33.9308125 91.8218667,33.0039375 91.8218667,31.6245625 C91.8218667,28.0483125 78.8750431,27.8164375 78.8750431,18.8083125 C78.8750431,13.7089375 83.3274353,10.1470625 89.0039843,10.1470625 C92.138102,10.1470625 98.1246118,11.6320625 98.1246118,16.4914375 L98.1246118,19.9801875 L91.6650039,19.9801875 L91.6650039,17.8039375 C91.6650039,17.4764375 90.8380235,16.6201875 88.9632,16.6201875 C86.8543373,16.6201875 85.8761412,17.6551875 85.8761412,18.6158125 C85.8761412,22.1464375 98.8210824,21.9014375 98.8210824,31.3570625 C98.8210824,36.2864375 94.9741804,40.3626875 88.7329255,40.3626875 C85.2035137,40.3626875 81.7537882,38.9501875 79.2402196,36.5151875" id="Fill-61" fill="#EC8424" mask="url(#mask-2)"></path>
                <path d="M106.605365,39.896875 L102.200031,39.896875 L112.884894,10.610625 L119.513286,10.610625 L127.880973,33.515625 C128.115639,34.20875 130.15109,39.896875 130.15109,39.896875 L125.794071,39.896875 C123.4656,39.896875 122.40458,39.155 121.648502,37.034375 L120.165208,32.871875 L112.191561,32.871875 L110.712031,37.034375 C109.958463,39.143125 108.945757,39.896875 106.605365,39.896875 M116.180267,20.44625 C116.10309,20.7125 116.023404,20.963125 115.948737,21.191875 L114.011169,26.826875 L118.34811,26.826875 L116.410541,21.191875 C116.332737,20.963125 116.254933,20.71 116.180267,20.44625" id="Fill-62" fill="#EC8424" mask="url(#mask-2)"></path>
            </g>
        </g>
    </g>
</svg>